<svg width="27" height="46" fill="none" xmlns="http://www.w3.org/2000/svg"><path d="M23.031.503H3.969A3.973 3.973 0 000 4.473v37.481a3.973 3.973 0 003.969 3.969H23.03A3.973 3.973 0 0027 41.954V4.472A3.973 3.973 0 0023.031.503zM1.421 8.03H25.58v27.898H1.42V8.03zM3.97 1.924h19.06a2.55 2.55 0 012.548 2.548v2.136H1.42V4.472a2.55 2.55 0 012.55-2.548zm19.06 42.578H3.969a2.55 2.55 0 01-2.548-2.548v-4.605H25.58v4.605a2.55 2.55 0 01-2.548 2.547z" fill="#000"/><path d="M16.375 40.245h-5.75a.71.71 0 000 1.421h5.75a.71.71 0 100-1.42zm-1.258-18.759L12.765 23.4l-.79-.925a.71.71 0 10-1.08.923l1.24 1.453a.71.71 0 00.99.09l2.889-2.351a.711.711 0 10-.897-1.103z" fill="#000"/><path d="M13.5 16.92a6.293 6.293 0 106.293 6.293A6.3 6.3 0 0013.5 16.92zm0 11.165a4.872 4.872 0 110-9.744 4.872 4.872 0 010 9.744zm9.49-5.583h-1.065a.71.71 0 100 1.422h1.066a.71.71 0 000-1.422zM5.075 23.924a.71.71 0 000-1.422H4.01a.71.71 0 100 1.422h1.066zm17.629 1.709l-1.488-.512a.71.71 0 10-.463 1.343l1.488.513a.71.71 0 10.463-1.344zM6.246 19.962l-1.487-.513a.712.712 0 10-.463 1.344l1.487.512a.71.71 0 10.463-1.343zm14.814 1.611c.072 0 .143-.01.211-.032l1.502-.467a.71.71 0 10-.421-1.357l-1.503.467a.71.71 0 00.211 1.389zM5.729 24.885l-1.503.467a.71.71 0 10.422 1.357l1.502-.467a.71.71 0 00-.421-1.357z" fill="#000"/></svg>