<svg width="52" height="46" fill="none" xmlns="http://www.w3.org/2000/svg"><path d="M51.169 32.64a3.397 3.397 0 00-2.773-2.46V10.691h1.698a.85.85 0 00.85-.85v-8.49c0-.47-.38-.849-.85-.849H12.736a.849.849 0 00-.85.85v8.49a.85.85 0 00.85.849h1.698v16.981h-.85c-2.106-.005-4.17.6-5.942 1.74v-4.287a.85.85 0 00-.85-.85H.85a.85.85 0 00-.849.85v19.528c0 .469.38.85.85.85h5.942a.85.85 0 00.85-.85v-4.286a10.944 10.944 0 005.943 1.739h13.941a11.18 11.18 0 002.86-.377l18.384-4.925a3.41 3.41 0 002.398-4.165zM13.584 2.2h35.66v6.793h-35.66V2.2zm2.547 8.49h30.566v19.634l-9.854 2.643a3.413 3.413 0 00-2.246-1.972l-11.44-3.069a7.72 7.72 0 00-1.974-.254h-5.052v-16.98zM5.943 43.806H1.698v-17.83h4.245v17.83zm42.386-8.64l-18.38 4.924a9.45 9.45 0 01-2.423.32H13.585a9.275 9.275 0 01-5.605-1.87l-.34-.255v-6.792l.34-.255a9.27 9.27 0 015.604-1.868h7.6a6 6 0 011.537.2l11.436 3.065c.676.186 1.17.766 1.248 1.462a.73.73 0 00.034.103.844.844 0 00-.023.111 1.698 1.698 0 01-2.135 1.608l-7.217-1.935a.85.85 0 10-.44 1.64l7.218 1.936a3.39 3.39 0 004.152-2.38c.046-.171.078-.345.095-.521l10.351-2.776a2.82 2.82 0 01.23-.05 1.698 1.698 0 011.914 1.689 1.698 1.698 0 01-1.256 1.642z" fill="#000"/><path d="M27.17 14.088h8.49a.85.85 0 000-1.698h-8.49a.849.849 0 100 1.698z" fill="#000"/></svg>