<svg width="45" height="46" fill="none" xmlns="http://www.w3.org/2000/svg"><path d="M37.083 8.36V4.212A3.713 3.713 0 0033.375.503H3.708A3.713 3.713 0 000 4.212v16.316a3.701 3.701 0 003.326 3.67l2.788 7.237a3.71 3.71 0 004.793 2.128l17.41-6.707a10.721 10.721 0 00.924 9.52l.426.681v7.204c0 .41.332.742.741.742h13.35c.41 0 .742-.332.742-.742V19.78a9.706 9.706 0 00-2.842-6.836L37.083 8.36zm0 4.436l2.251 5.843a2.225 2.225 0 01-1.277 2.876l-1.287.497c.206-.468.312-.974.313-1.484v-7.732zm-35.6 7.732V4.212c0-1.23.997-2.225 2.225-2.225h29.667c1.229 0 2.225.996 2.225 2.225v4.714h-.007l.007.016v11.586a2.26 2.26 0 01-.05.384l-6.794-6.794a3.957 3.957 0 00-5.71 5.472l2.895 3.163H3.708a2.225 2.225 0 01-2.225-2.225zm9.502 3.709l-5.274 2.03-.78-2.03h6.054zm-.611 7.941a2.225 2.225 0 01-2.876-1.276l-1.252-3.254 8.854-3.412v-.004h12.2l.965 1.051-17.891 6.895zM43.017 43.52H31.15v-5.934h11.867v5.934zm0-7.417H30.82l-.322-.514a9.249 9.249 0 01-.188-9.498.742.742 0 00-.097-.87l-6.078-6.63a2.473 2.473 0 013.572-3.421l11.819 11.816 1.048-1.049-2.744-2.744.761-.297a3.709 3.709 0 002.127-4.791l-2.51-6.519 2.402 2.408a8.214 8.214 0 012.407 5.786v16.323z" fill="#000"/><path d="M8.455 10.887a1.928 1.928 0 001.928-1.929v-3.56A1.928 1.928 0 008.456 3.47h-3.56a1.928 1.928 0 00-1.928 1.928v3.56c0 1.065.863 1.929 1.928 1.929h3.56zM4.45 8.958V7.92h1.483V6.437H4.45V5.398c0-.245.2-.445.445-.445h3.56c.246 0 .445.2.445.445v1.039H7.417V7.92H8.9v1.038c0 .246-.2.445-.445.445h-3.56a.445.445 0 01-.445-.445zm-.742 4.154h2.967v1.483H3.708v-1.483zm0 4.449h2.967v1.484H3.708V17.56zm13.35 0h2.967v1.484h-2.967V17.56zm-8.9-4.449h2.967v1.483H8.158v-1.483zm4.45 0h2.967v1.483h-2.967v-1.483zm4.45 0h2.967v1.483h-2.967v-1.483zM31.15 4.211h1.483v2.225H31.15V4.211zm-2.967 0h1.484v2.225h-1.484V4.211zm-2.966 0H26.7v2.225h-1.483V4.211zm-2.967 0h1.483v2.225H22.25V4.211zM32.633 39.07h1.484v1.483h-1.484V39.07z" fill="#000"/></svg>