<svg width="21" height="28" fill="none" xmlns="http://www.w3.org/2000/svg"><path d="M20.472 9.135h-2.26a.39.39 0 000 .783h2.26a.39.39 0 000-.783zm-2.26-2.389h1.026a.39.39 0 00.39-.391.39.39 0 00-.39-.391h-1.026a.39.39 0 000 .782zm0-3.172h1.39a.39.39 0 000-.782h-1.39a.39.39 0 000 .782zm1.39 11.906h-1.39a.39.39 0 000 .783h1.39a.39.39 0 000-.784zm-1.39-2.39h1.026a.39.39 0 00.39-.391.39.39 0 00-.39-.392h-1.026a.39.39 0 000 .783zM6.6 8.894c.645.346.684.424.855.424.401 0 .54-.537.19-.733l-.664-.374.489-.201a.392.392 0 00.213-.51.389.389 0 00-.508-.214l-1.062.437-1.393-.784 1.393-.784c1.092.439 1.075.466 1.21.466.425 0 .54-.592.147-.754l-.489-.2.665-.375a.392.392 0 00.15-.532.389.389 0 00-.53-.15l-.665.373.085-.524a.39.39 0 10-.769-.126l-.184 1.139-1.421.799V4.635l.898-.717a.393.393 0 00.063-.55.388.388 0 00-.547-.063l-.414.33V2.87a.39.39 0 10-.779 0v.765l-.413-.33a.388.388 0 00-.548.063.392.392 0 00.063.55l.898.717v1.636l-1.42-.8-.184-1.137a.39.39 0 10-.77.125l.086.524L.58 4.61a.388.388 0 00-.53.15.392.392 0 00.15.533l.664.374-.489.201a.392.392 0 00-.213.511c.082.2.31.296.508.214l1.062-.437 1.393.784-1.393.784L.67 7.286a.392.392 0 00-.295.724l.489.201-.665.374c-.348.196-.21.733.19.733.172 0 .211-.079.856-.424l-.085.524a.39.39 0 10.769.126l.184-1.138 1.42-.8v1.636l-.898.718a.392.392 0 00-.063.55c.134.169.38.197.548.062l.413-.33v.765a.39.39 0 10.779 0v-.765c.36.262.437.415.656.415a.392.392 0 00.242-.697l-.898-.718V7.606l1.42.8.185 1.138a.39.39 0 10.769-.126L6.6 8.894z" fill="#000"/><path d="M16.521 16.564V3.938c0-1.952-1.58-3.54-3.522-3.54-1.943 0-3.523 1.588-3.523 3.54v12.626a5.89 5.89 0 00-2.318 4.682c0 3.236 2.62 5.87 5.84 5.87 3.221 0 5.842-2.634 5.842-5.87a5.89 5.89 0 00-2.319-4.682zM13 26.332c-2.792 0-5.062-2.281-5.062-5.086 0-1.653.804-3.21 2.152-4.163a.392.392 0 00.166-.32V3.938c0-1.52 1.23-2.757 2.744-2.757a2.754 2.754 0 012.743 2.757v12.825a.39.39 0 00.166.32 5.104 5.104 0 012.153 4.163c0 2.805-2.271 5.087-5.062 5.087z" fill="#000"/><path d="M14.704 17.34V3.938a1.71 1.71 0 00-1.705-1.713c-.94 0-1.705.769-1.705 1.713V5.15a.39.39 0 10.779 0V3.938a.93.93 0 01.926-.93.93.93 0 01.926.93v11.598h-1.852V6.719a.39.39 0 10-.78 0V17.34a4.195 4.195 0 00-2.449 3.807c0 2.302 1.864 4.174 4.155 4.174 2.29 0 4.154-1.873 4.154-4.174a4.195 4.195 0 00-2.45-3.807zm-1.705 7.198a3.387 3.387 0 01-3.376-3.391c0-1.41.883-2.686 2.197-3.178a.391.391 0 00.253-.367V16.32h1.852v1.283c0 .163.1.31.253.367a3.405 3.405 0 012.196 3.178 3.387 3.387 0 01-3.375 3.391z" fill="#000"/></svg>