<svg width="27" height="29" fill="none" xmlns="http://www.w3.org/2000/svg"><path d="M26.868 20.964l-10.8-10.852a.448.448 0 00-.636 0l-2.25 2.26a.454.454 0 000 .64l1.482 1.489H6.22L3.825 2.306A1.764 1.764 0 001.705.982a1.773 1.773 0 00-1.317 2.13l2.648 11.4a1.343 1.343 0 00-1.232 1.445c.023.3.145.583.347.805a1.32 1.32 0 00-.27 1.356H1.8c-.994 0-1.8.81-1.8 1.809v6.33c0 1 .806 1.81 1.8 1.81h15.3c.994 0 1.8-.81 1.8-1.81v-6.33c0-.999-.806-1.809-1.8-1.809h-.083a1.32 1.32 0 00-.27-1.356c.026-.03.051-.06.074-.09l7.16 7.192a.448.448 0 00.637 0l2.25-2.26a.454.454 0 000-.64zM1.265 2.906a.865.865 0 011.68-.41L5.303 14.5H3.957L1.265 2.906zm1.885 12.5h12.414l.605.607a.448.448 0 01-.419.296H3.15a.451.451 0 01-.45-.452.45.45 0 01.45-.452zm0 1.808h12.6a.451.451 0 010 .904H3.15a.451.451 0 01-.45-.452.45.45 0 01.45-.452zm13.95 1.809c.497 0 .9.404.9.904v6.33c0 .5-.403.905-.9.905H1.8a.902.902 0 01-.9-.905v-6.33c0-.5.403-.904.9-.904h15.3zm7.2 3.882L14.136 12.692l1.614-1.621 10.164 10.212-1.614 1.622z" fill="#000"/><path d="M13.05 21.736c0 .248.202.452.45.452a.452.452 0 000-.904.452.452 0 00-.45.452z" fill="#000"/><path d="M16.65 21.284h-1.347a.452.452 0 100 .904h.897v3.165H2.7v-3.165h8.998a.452.452 0 000-.904H2.25a.451.451 0 00-.45.452v3.617c0 .5.403.904.9.904h13.5c.497 0 .9-.404.9-.904v-3.617a.451.451 0 00-.45-.453z" fill="#000"/></svg>