<svg width="21" height="28" fill="none" xmlns="http://www.w3.org/2000/svg"><path d="M20.503 6.288l-2.72-2.732c.186-.218.299-.5.299-.81v-.849c0-.688-.557-1.247-1.241-1.247H4.159c-.684 0-1.24.56-1.24 1.247v.85c0 .308.112.591.298.81L.497 6.288a.399.399 0 00.28.678c.713 0 1.049.176 1.437.38l.125.065-.377.378a2.511 2.511 0 00-.735 1.783v16.111c0 1.156.936 2.097 2.087 2.097h14.372c1.15 0 2.087-.94 2.087-2.097V9.574a2.51 2.51 0 00-.735-1.784l-.378-.379a15.6 15.6 0 00.124-.064c.39-.204.725-.38 1.439-.38a.399.399 0 00.28-.678zm-1.521 3.285v16.111a1.3 1.3 0 01-1.296 1.302H3.314a1.3 1.3 0 01-1.296-1.302V9.574c0-.462.18-.896.504-1.222l.626-.629c.24.057.523.093.869.093.907 0 1.383-.25 1.803-.47.388-.203.724-.38 1.437-.38.713 0 1.049.177 1.437.38.42.22.897.47 1.804.47s1.383-.25 1.803-.47c.389-.203.724-.379 1.437-.379.714 0 1.05.176 1.438.38.42.22.897.47 1.804.47.347 0 .63-.037.872-.094l.627.63c.324.325.503.759.503 1.22zm-.563-2.931c-.39.204-.725.38-1.439.38-.713 0-1.049-.176-1.438-.38-.42-.22-.896-.47-1.804-.47-.907 0-1.383.25-1.803.47-.389.204-.724.38-1.437.38-.713 0-1.05-.176-1.438-.38-.42-.22-.896-.47-1.803-.47-.907 0-1.383.25-1.803.47-.389.204-.724.38-1.437.38-.713 0-1.049-.176-1.437-.38-.261-.137-.544-.286-.94-.378L3.924 3.97c.077.014.155.023.236.023h10.146a.396.396 0 00.395-.398.396.396 0 00-.395-.397H4.159a.452.452 0 01-.45-.452v-.85c0-.25.202-.452.45-.452h12.682c.248 0 .45.203.45.452v.85a.452.452 0 01-.45.452h-.846a.396.396 0 00-.395.397c0 .22.177.398.395.398h.846c.08 0 .16-.009.236-.023l2.282 2.293c-.395.092-.679.24-.94.378z" fill="#000"/><path d="M15.995 10.42h-.845a.396.396 0 00-.395.397c0 .22.177.398.395.398h.845c.249 0 .45.203.45.452v9.77a.451.451 0 01-.45.452H5.005a.452.452 0 01-.45-.452v-9.77c0-.25.202-.452.45-.452h8.454a.396.396 0 00.396-.398.396.396 0 00-.396-.397H5.005c-.685 0-1.241.56-1.241 1.247v9.77c0 .687.556 1.246 1.24 1.246h10.992c.684 0 1.24-.559 1.24-1.246v-9.77c0-.688-.556-1.247-1.24-1.247z" fill="#000"/><path d="M13.914 16.732l-1.196-1.201a1.232 1.232 0 00-.58-.33 1.67 1.67 0 00-.42-.847l.404-.81a.398.398 0 00-.177-.534.395.395 0 00-.53.178l-.361.726a1.65 1.65 0 00-1.108 0l-.36-.726a.395.395 0 00-.531-.178.398.398 0 00-.177.534l.403.81a1.67 1.67 0 00-.42.847 1.232 1.232 0 00-.58.33l-1.195 1.2a1.242 1.242 0 00-.363.883 1.242 1.242 0 002.118.881l.053-.053c.19.986.827 1.693 1.606 1.693.778 0 1.416-.707 1.606-1.693l.053.053c.234.236.546.366.877.366a1.242 1.242 0 001.241-1.247c0-.333-.129-.646-.363-.882zm-5.042.608l-.59.593a.446.446 0 01-.637 0 .45.45 0 010-.64l1.196-1.2a.451.451 0 01.084-.066c.052.155.127.303.223.437a2.8 2.8 0 00-.276.876zm1.628 2c-.47 0-.81-.667-.865-1.329h1.73c-.055.662-.395 1.329-.865 1.329zm-.79-2.124c.134-.495.422-.904.79-.904.368 0 .656.409.79.904H9.71zm1.605-1.412a1.33 1.33 0 00-.815-.287 1.33 1.33 0 00-.815.287.876.876 0 01.815-1.191.876.876 0 01.815 1.191zm2.04 2.13a.446.446 0 01-.637 0l-.59-.594a2.797 2.797 0 00-.277-.876 1.63 1.63 0 00.224-.437c.03.018.058.04.084.066l1.195 1.2a.45.45 0 010 .64zm3.486 7.353H6.696a.396.396 0 00-.396.397c0 .22.177.398.396.398H16.84a.396.396 0 00.395-.398.396.396 0 00-.395-.397zm-11.836 0h-.846a.396.396 0 00-.395.397c0 .22.177.398.395.398h.846a.396.396 0 00.395-.398.396.396 0 00-.395-.397z" fill="#000"/></svg>