<svg width="15" height="15" fill="none" xmlns="http://www.w3.org/2000/svg"><path d="M14.792 12.473l-2.115 2.098c-.312.32-.726.428-1.13.429-1.781-.053-3.466-.929-4.849-1.828-2.27-1.651-4.353-3.7-5.66-6.174C.535 5.96-.053 4.636.003 3.478c.005-.436.122-.864.43-1.145L2.547.22c.439-.374.864-.245 1.145.19l1.701 3.227a.937.937 0 01-.19 1.064l-.78.78a.383.383 0 00-.08.222c.3 1.156 1.205 2.222 2.004 2.956.8.733 1.66 1.727 2.775 1.962.138.039.307.053.405-.04l.907-.921c.312-.237.763-.353 1.097-.159h.016l3.069 1.812c.45.282.497.828.175 1.16z" fill="#FFC700"/></svg>