<svg xmlns="http://www.w3.org/2000/svg" viewBox="0 0 227.406 227.406"><g fill="#000002"><path d="M217.576 214.708l-65.188-67.794c16.139-15.55 26.209-37.355 26.209-61.484 0-47.106-38.323-85.43-85.43-85.43C46.06 0 7.737 38.323 7.737 85.43c0 47.106 38.323 85.43 85.43 85.43 17.574 0 33.924-5.339 47.52-14.474l66.077 68.719a7.482 7.482 0 005.407 2.302 7.5 7.5 0 005.405-12.699zM22.737 85.43c0-38.835 31.595-70.43 70.43-70.43 38.835 0 70.43 31.595 70.43 70.43s-31.595 70.43-70.43 70.43c-38.835-.001-70.43-31.595-70.43-70.43z"/><path d="M131.415 77.93h-30.748V47.182c0-4.143-3.357-7.5-7.5-7.5a7.499 7.499 0 00-7.5 7.5V77.93H54.918c-4.143 0-7.5 3.357-7.5 7.5s3.357 7.5 7.5 7.5h30.748v30.749c0 4.143 3.357 7.5 7.5 7.5s7.5-3.357 7.5-7.5V92.93h30.748c4.143 0 7.5-3.357 7.5-7.5s-3.357-7.5-7.499-7.5z"/></g></svg>